# xmcd
#
# Track frame offsets:
#	150
#	15753
#	29802
#	46097
#	61825
#	76058
#	91063
#	105789
#	118264
#	131966
#	147562
#	162512
#	176855
#	190979
#	206744
#	220723
#	235463
#	249925
#	263867
#	277637
#	292282
#	308114
#	322540
#	336412
#
# Disc length: 4685 seconds
#
# Revision: 0
# Processed by: cddbd v1.5.2PL0 Copyright (c) Steve Scherf et al.
# Submitted via: dBpowerAMP V4.0
#
DISCID=58124b18
DTITLE=Bessie Smith - Squeeze me CD1
DYEAR=1900
DGENRE=Blues
TTITLE0=Down Hearted Blues
TTITLE1=Gulf Coast Blues
TTITLE2=Beale Street Mama
TTITLE3='Tain't Nobody's Bizness If I Do
TTITLE4=Keeps On A-Rainin'
TTITLE5=Midnight Blues
TTITLE6=Jail-House Blues
TTITLE7=Graveyard Dream Blues
TTITLE8=Far Away Blues
TTITLE9=Any Woman's Blues
TTITLE10=Chicago Bound Blues
TTITLE11=Easy Come, Easy Go Blues
TTITLE12=House Rent Blues
TTITLE13=Salt Water Blues
TTITLE14=Sing Sing Prison Blues
TTITLE15=Love Me Daddy Blues
TTITLE16=The St. Louis Blues
TTITLE17=Reckless Blues
TTITLE18=Sobbin' Hearted Blues
TTITLE19=Cold In Hand Blues
TTITLE20=You've Been A Good Ole Wagon
TTITLE21=Cake-Walking Babies From Home
TTITLE22=The Yellow Dog Blues
TTITLE23=Soft Pedal Blues
EXTD=
EXTT0=
EXTT1=
EXTT2=
EXTT3=
EXTT4=
EXTT5=
EXTT6=
EXTT7=
EXTT8=
EXTT9=
EXTT10=
EXTT11=
EXTT12=
EXTT13=
EXTT14=
EXTT15=
EXTT16=
EXTT17=
EXTT18=
EXTT19=
EXTT20=
EXTT21=
EXTT22=
EXTT23=
PLAYORDER=
